<svg xmlns="http://www.w3.org/2000/svg" xmlns:xlink="http://www.w3.org/1999/xlink" width="1290.37" height="79.284" viewBox="0 0 1290.37 79.284">
  <defs>
    <style>
      .cls-1 {
        fill: #0e2e5d;
      }

      .cls-2 {
        fill: #195091;
      }

      .cls-3 {
        fill: #329dff;
      }

      .cls-4 {
        fill: url(#linear-gradient);
      }

      .cls-5, .cls-6 {
        fill: #00baf3;
      }

      .cls-6 {
        stroke: #195091;
      }

      .cls-6, .cls-7 {
        stroke-miterlimit: 10;
      }

      .cls-7 {
        fill: none;
        stroke: #329dff;
      }
    </style>
    <linearGradient id="linear-gradient" x1="0.5" x2="0.5" y2="1" gradientUnits="objectBoundingBox">
      <stop offset="0" stop-color="#b0e3fe"/>
      <stop offset="1" stop-color="#1aa7f1"/>
    </linearGradient>
  </defs>
  <g id="组_2437" data-name="组 2437" transform="translate(712.873 -499.929)">
    <g id="联合_3" data-name="联合 3">
      <path id="路径_1652" data-name="路径 1652" class="cls-1" d="M129.795,575.429h-413a6.475,6.475,0,0,1-4.656-1.676,19.141,19.141,0,0,1-3.126-4.39c-.4-.681-.818-1.385-1.279-2.115l-.125-.2a6.246,6.246,0,0,0-.4-.664l-31.6-52.714-.145-.243H-652.205c-.921,0-1.78.016-2.538.03-.649.012-1.261.023-1.822.023-2.393,0-3.875-.212-5-1.314a2.435,2.435,0,0,1-.317-.373l-8.4-11.366H532.744l-9.326,11.464c-1.281,1.391-3.137,1.544-6.769,1.544q-.61,0-1.283,0c-.5,0-1.02,0-1.571,0H171.12l-.146.243-31.6,52.717c-.691,1.012-1.283,2-1.856,2.953a19.871,19.871,0,0,1-3.146,4.375A6.333,6.333,0,0,1,129.795,575.429Z"/>
      <path id="路径_1653" data-name="路径 1653" class="cls-2" d="M129.795,574.929a5.787,5.787,0,0,0,4.238-1.579,19.556,19.556,0,0,0,3.058-4.265c.574-.956,1.167-1.945,1.862-2.964l31.592-52.706.292-.486H513.795c.552,0,1.071,0,1.573,0,.448,0,.874,0,1.281,0,3.473,0,5.243-.136,6.391-1.372l8.653-10.636H-669.361l7.822,10.482a4.573,4.573,0,0,0,.409.484c1,.915,2.329,1.087,4.565,1.087.556,0,1.167-.011,1.813-.023.761-.014,1.622-.03,2.547-.03h327.959l.291.486,31.59,52.7a6.618,6.618,0,0,1,.408.684l.114.181c.465.736.882,1.444,1.286,2.128a18.816,18.816,0,0,0,3.035,4.275,5.923,5.923,0,0,0,4.317,1.545h413m0,1h-413c-5.33,0-6.593-3.834-9.484-8.414,0,.01,0,.015,0,.015-.031,0-.215-.449-.512-.87l-31.608-52.731H-652.205c-1.7,0-3.131.053-4.36.053-2.631,0-4.323-.242-5.636-1.757.02.014.02.014,0,0l-9-12.292h1205l-10,12.292c-1.434,1.567-3.483,1.716-7.146,1.716-.859,0-1.806-.008-2.854-.008H171.4L139.795,566.66C136.551,571.406,135.318,575.929,129.795,575.929Zm-792-63.7,0,0Z"/>
    </g>
    <g id="路径_1637" data-name="路径 1637">
      <path id="路径_1654" data-name="路径 1654" class="cls-3" d="M83.43,578.713H-242.8l9.779-5.452a1.447,1.447,0,0,0,.131-.073l.02-.011c.137-.072.259-.141.377-.208a3.438,3.438,0,0,1,2.109-.54H71.013a3.478,3.478,0,0,1,2.1.543c.159.088.338.188.541.288Z"/>
      <path id="路径_1655" data-name="路径 1655" class="cls-2" d="M81.506,578.213l-8.089-4.51c-.21-.1-.391-.2-.552-.294a3.009,3.009,0,0,0-1.852-.48H-230.381a2.977,2.977,0,0,0-1.863.475c-.115.065-.246.139-.389.215l-.005,0c-.037.023-.087.052-.148.082l-8.088,4.509H81.506m3.848,1H-244.721l11.472-6.4c.085-.04.138-.083.147-.083h0a4.361,4.361,0,0,1,2.72-.806H71.013a4.833,4.833,0,0,1,2.868.888Z"/>
    </g>
    <path id="路径_1634" data-name="路径 1634" class="cls-4" d="M-224.446,518.827l5.156.9-1.234,3.913h11.89v33.81h-4.5V555.1H-229.54v2.387h-4.5V523.636h8.672Q-224.759,520.858-224.446,518.827Zm11.312,9.935H-229.54v3.795h16.406Zm-16.406,12.479h16.406v-3.8H-229.54Zm0,8.727h16.406v-3.832H-229.54Zm39.5-11.348,3.328,9.862q2.141-4.851,2.094-17.759h-3.172v-5.166h3.266l.047-6.652h4.156l-.063,6.649h8.188l-.36,22.109a47.362,47.362,0,0,1-.3,5.576,4.693,4.693,0,0,1-.867,1.986,3.7,3.7,0,0,1-1.719,1.262,23.5,23.5,0,0,1-5.594.45q-.5-2.975-1.125-5.869,2.064.156,3.422.156a1.956,1.956,0,0,0,1.391-.449,1.979,1.979,0,0,0,.57-1.3q.087-.851.2-6.01t.164-12.748h-4.048q-.018,6.261-.562,12.494a36.081,36.081,0,0,1-1.734,7.621,27.1,27.1,0,0,1-3.406,6.848,37.174,37.174,0,0,0-3.814-3.288,21.135,21.135,0,0,0,1.657-2.442l-8.672.919a10.031,10.031,0,0,0-2.984.821l-1.938-4.734q1.641-1.664,4.016-12.287h-3.891v-5.009h14.437v5.009h-6q-1.452,5.614-3.094,10.918,2.844-.1,5.141-.25-1.125-3.933-2.2-7.263Zm1.594-11.817h-12v-5.009h12Zm29.188-7.708,4.344,1.8q-1.411,4.391-3.189,8.575v27.78h-4.5V538.545q-1.515,2.6-3.156,4.932-.531-3.678-1.187-6.849a67.224,67.224,0,0,0,7.687-17.531Zm19.156,5.321,3.906,3.757a85.235,85.235,0,0,1-10.657,12.192v8q0,2.936,2.031,2.935h1.344a1.948,1.948,0,0,0,2.039-1.3q.492-1.292.8-7.748,2.564,1.019,4.75,1.722-.561,5.655-.977,8.042a5.62,5.62,0,0,1-2,3.631,6.883,6.883,0,0,1-4.367,1.243h-2.682q-5.625,0-5.625-7v-5.36q-1.812,1.5-3.719,2.935-1-2.073-2.75-5.126a62.759,62.759,0,0,0,6.469-4.97V519.254h4.688v13.6a69.179,69.179,0,0,0,6.749-8.432Zm12.718-5.672q2.345,3.6,4.531,7.513l-3.844,3.17a86.079,86.079,0,0,0-4.25-7.827Zm24.188,7.161h-17.469v-5.086H-103.2Zm-4.031,10.136q3.148,5.494,5.813,11.388l-3.781,2.5q-.594-1.408-1.2-2.779-9.936.725-14.516,1.488l-1.687-4.383a27.2,27.2,0,0,0,5.109-8.57h-5.145V530.6h21.25v5.088H-112.4a67.039,67.039,0,0,1-4.016,7.475q3.095-.137,7.953-.529-1.062-2.17-2.141-4.206Zm6.406,15.378-1.406,5.127q-17.828.156-20.266-.577a6.936,6.936,0,0,1-3.953-3.218q-1.938,2.307-3.782,4.812l-1.75-6.1q1.453-1.662,3.094-3.267v-10.82h-2.844v-5.166h7.156v15.924a8.022,8.022,0,0,0,2.258,2.327,6.441,6.441,0,0,0,2.609,1.019,50.416,50.416,0,0,0,5.773.176Q-109.056,551.655-100.821,551.419Zm26.687-32.675q1.875,3.325,2.969,5.6l-2.672,1.761h7.328v4.226h-5.375v4.07h5.125v4.031h-5.125v4.066h5.125v4.03h-5.125v4.07h5.75v4.151H-80.571v2.74H-84.7V538.252q-.687,1.272-1.406,2.446a32.32,32.32,0,0,0-1.687-5.2A63.181,63.181,0,0,0-82.07,518.9l4,1.331q-.733,3.053-1.609,5.87h4.8q-.969-2.426-2.344-5.2ZM-80.571,534.4h4.563v-4.07H-80.57Zm0,8.1h4.563v-4.069H-80.57Zm0,8.1h4.563v-4.07H-80.57Zm-12.25-19.723q.7,0,1.8-.058.939-2.369,1.984-5.225l3.5,1.644q-3.219,8.415-5.687,13.657,1.75-.2,4.531-.665a42.276,42.276,0,0,0-.375,4.7,54.512,54.512,0,0,0-8.094,1.291l-1.062-4.421a37.57,37.57,0,0,0,3.391-6.6l-3.047.333-1.066-4.308q1.563-2.27,4.656-12.484l3.844,1.448Q-90.789,526.34-92.821,530.875Zm-4.094,18.9q4.563-.744,11-2.153-.156,3.286-.125,5.44-4.875.939-10.25,2.191Zm52.531-31.033,4.469.861q-.358,2.035-.8,3.993h9.391v5.008h-10.75a60.747,60.747,0,0,1-3.31,8.378,32.542,32.542,0,0,0-3.25-2.348v4.7h-4.375V518.941h4.375v13.892A49.113,49.113,0,0,0-44.384,518.744Zm-15.281,1.878h4.313V537.84h-4.312Zm20.031,8.688q3.939,3.68,6.188,6.261l-3.125,4.109a83.219,83.219,0,0,0-5.875-6.457ZM-61.915,551.3h3.125V539.875h24.813V551.3h3.125v4.892H-61.915Zm23.531-6.652h-2.625V551.3h2.625Zm-16,6.652h2.625V544.65h-2.625Zm6.688,0h2.625V544.65H-47.7Zm31.062-27.822H-9.1l-.812-3.4,4.438-1.057q.548,2.271.953,4.462H3.3v7.905H-.634v-3.13H-12.7v3.13h-3.938ZM-26.7,526.259h2.875v-6.965h3.781v6.966h2.125v5.009H-20.04v5.885l2.344-.724a37.963,37.963,0,0,0-.125,5.322l-2.219.763v10.157a6.938,6.938,0,0,1-.531,3.023,2.2,2.2,0,0,1-1.513,1.282,26.713,26.713,0,0,1-3.93.313q-.3-2.594-.844-5.127a16.024,16.024,0,0,0,2.188.118q.813,0,.844-1.643V543.77l-2.969.959-.25-5.635q1.548-.376,3.219-.842v-6.985H-26.7Zm18.938,7.161-7.126,6.569-2.562-3.678q3.094-2.542,6.875-6.3Zm1.813.039,2.656-3.326q2.937,2.543,6.969,6.34L.961,540.152q-1.283-1.29-6.907-6.694Zm-9.939,6.926h18v4.775h-7v5.948H3.741v4.773h-21.5v-4.775h8.875v-5.948h-7Zm24.375-.4H21.21V525.631H9.866v-5.165H37.491v5.165H25.96v14.358H38.866v5.166H25.96v12.174H21.21V545.158H8.491ZM10.3,529.15l3.281-2.779q3,4.383,6.219,9.705l-3.781,3.13q-3.156-5.979-5.719-10.052Zm27.25.392q-3.312,4.969-7,9.783l-3.187-3.248a87.547,87.547,0,0,0,6.5-9.666Zm28.094-5.987q4.813,5.871,8.906,11.544l-3.469,3.679-2.437-3.6q-13.437.275-23.344,1.409l-1.657-4.612a60.157,60.157,0,0,0,12.188-13.539l4.094,2.779q-4.437,5.244-9.375,10.253l15.031-.665L62.4,526.42ZM46.585,557.446V539.093H70.648v18.353H66.4v-2.3H50.835v2.3Zm19.812-13.5H50.835v6.34H66.4Z"/>
    <g id="组_2435" data-name="组 2435">
      <path id="路径_1656" data-name="路径 1656" class="cls-5" d="M171.834,542.312h-6.268l12-21.554h6.268Z"/>
      <path id="路径_1657" data-name="路径 1657" class="cls-5" d="M186.2,537.726h-6.268l9-16.968H195.2Z"/>
      <path id="路径_1658" data-name="路径 1658" class="cls-5" d="M199.562,534.9h-6.268l7-14.14h6.268Z"/>
      <path id="路径_1659" data-name="路径 1659" class="cls-5" d="M212.926,532.376h-6.268l5-11.618h6.268Z"/>
      <path id="路径_1660" data-name="路径 1660" class="cls-5" d="M225.29,530.771h-6.268l4-10.013h6.268Z"/>
      <path id="路径_1661" data-name="路径 1661" class="cls-5" d="M237.654,529.777h-6.268l3-9.019h6.268Z"/>
      <path id="路径_1662" data-name="路径 1662" class="cls-5" d="M250.018,528.86h-6.268l2-8.1h6.268Z"/>
      <path id="路径_1663" data-name="路径 1663" class="cls-5" d="M261.382,527.484h-6.268l2-6.726h6.268Z"/>
    </g>
    <path id="路径_1664" data-name="路径 1664" class="cls-6" d="M544.208,500.929l-15.7,19.829h-44.37l-6,6.726h77.3l21.019-26.555Z"/>
    <path id="路径_1665" data-name="路径 1665" class="cls-7" d="M158.951,556.121s7.461-6.883,44.07-14.764c37.633-8.1,90.452-6.918,90.452-6.918H367.7"/>
    <g id="组_2436" data-name="组 2436">
      <path id="路径_1666" data-name="路径 1666" class="cls-5" d="M-324.586,542.312h6.268l-12-21.554h-6.268Z"/>
      <path id="路径_1667" data-name="路径 1667" class="cls-5" d="M-338.95,537.726h6.268l-9-16.968h-6.268Z"/>
      <path id="路径_1668" data-name="路径 1668" class="cls-5" d="M-352.314,534.9h6.268l-7-14.14h-6.268Z"/>
      <path id="路径_1669" data-name="路径 1669" class="cls-5" d="M-365.678,532.376h6.268l-5-11.618h-6.268Z"/>
      <path id="路径_1670" data-name="路径 1670" class="cls-5" d="M-378.042,530.771h6.268l-4-10.013h-6.268Z"/>
      <path id="路径_1671" data-name="路径 1671" class="cls-5" d="M-390.405,529.777h6.268l-3-9.019h-6.268Z"/>
      <path id="路径_1672" data-name="路径 1672" class="cls-5" d="M-402.769,528.86h6.268l-2-8.1h-6.268Z"/>
      <path id="路径_1673" data-name="路径 1673" class="cls-5" d="M-414.133,527.484h6.268l-2-6.726h-6.268Z"/>
    </g>
    <path id="路径_1674" data-name="路径 1674" class="cls-5" d="M-680.618,500.929l15.7,19.829h44.37l6,6.726h-77.3l-21.019-26.555Z"/>
    <path id="路径_1675" data-name="路径 1675" class="cls-7" d="M-311.7,556.121s-7.461-6.883-44.07-14.764c-37.633-8.1-90.452-6.918-90.452-6.918h-74.228"/>
  </g>
</svg>
