<svg xmlns="http://www.w3.org/2000/svg" width="30.026" height="27.659" viewBox="0 0 30.026 27.659">
  <defs>
    <style>
      .cls-1 {
        fill: #00baf3;
      }
    </style>
  </defs>
  <g id="组_1085" data-name="组 1085" transform="translate(-14.486 -17.692)">
    <path id="路径_8" data-name="路径 8" class="cls-1" d="M39.747,77.809h10.1a1.16,1.16,0,1,1,0,2.31h-10.1a2.586,2.586,0,0,0,.231-1.155,2.753,2.753,0,0,0-.231-1.155Zm-3.522-1.732a2.887,2.887,0,1,1-2.887,2.887A2.934,2.934,0,0,1,36.225,76.076ZM35.07,75.5h2.31v-2.31H35.07Zm-12.588,2.31H32.76a3.164,3.164,0,0,0,0,2.31H22.482a1.188,1.188,0,0,1-1.27-1.155A1.224,1.224,0,0,1,22.482,77.809ZM45.464,59.331h2.31v-2.31h-2.31Zm-2.887-2.31a1.155,1.155,0,1,0,1.155,1.155A1.2,1.2,0,0,0,42.577,57.021Zm-4.042,0a1.155,1.155,0,1,0,1.155,1.155A1.158,1.158,0,0,0,38.535,57.021Zm10.971,5.2H22.944a1.75,1.75,0,0,1-1.732-1.79V55.982a1.787,1.787,0,0,1,1.732-1.79H49.506a1.751,1.751,0,0,1,1.732,1.79v4.446A1.751,1.751,0,0,1,49.506,62.218Zm-4.042,7.507h2.31v-2.31h-2.31Zm-2.887-2.31a1.155,1.155,0,1,0,1.155,1.155A1.158,1.158,0,0,0,42.577,67.415Zm-4.042,0a1.155,1.155,0,1,0,1.155,1.155A1.123,1.123,0,0,0,38.535,67.415Zm10.971,5.2H22.944a1.751,1.751,0,0,1-1.732-1.79V66.376a1.787,1.787,0,0,1,1.732-1.79H49.506a1.751,1.751,0,0,1,1.732,1.79v4.446A1.828,1.828,0,0,1,49.506,72.612Z" transform="translate(-6.726 -36.5)"/>
  </g>
</svg>
