<svg xmlns="http://www.w3.org/2000/svg" width="103" height="103" viewBox="0 0 103 103">
  <defs>
    <style>
      .cls-1 {
        fill: none;
        stroke: #00baf3;
        stroke-miterlimit: 10;
      }

      .cls-2 {
        fill: #00baf3;
      }
    </style>
  </defs>
  <g id="组_4359" data-name="组 4359" transform="translate(0.879 0.879)">
    <rect id="矩形_434" data-name="矩形 434" class="cls-1" width="102" height="102" rx="14" transform="translate(-0.379 -0.379)"/>
    <path id="路径_2865" data-name="路径 2865" class="cls-2" d="M195.9,2751.828a83.859,83.859,0,0,0-2.769-9.954l-.642-1.885-.595-1.749-.119-.35-1.814,3.8a15.548,15.548,0,0,1-3.216,4.354,27.668,27.668,0,0,0-46.552,11.528,15.765,15.765,0,1,0,9.575,29.459,27.646,27.646,0,0,0,33.177.656,19.068,19.068,0,1,0,12.955-35.858Zm-4.157,21.95c-5.31,7.089-15.726,6.213-24.047,6-1.571-.041-7.353.695-7.652,2.866a3.091,3.091,0,0,0,1.261,2.9,5.048,5.048,0,0,1-2.427-2.431c-.491-1.179-.143-2.264,1.088-3.3a8.819,8.819,0,0,1,3.65-1.309c1.318-.251,5.9-1.39,7.222-1.86a27.067,27.067,0,0,0,3.335-1.432,31.414,31.414,0,0,0,15.923-24.787c-3.7,12.222-11.351,19.841-18.66,22.547a131.091,131.091,0,0,1-14.088,3.607l-.373-.187c-6.158-2.986-6.313-16.327,4.852-20.65,4.914-1.9,9.61-.84,14.9-2.115,5.66-1.337,12.222-5.6,14.865-11.133C194.607,2751.356,198.183,2765.227,191.746,2773.778Z" transform="translate(-117.739 -2708.612)"/>
  </g>
</svg>
