<svg xmlns="http://www.w3.org/2000/svg" width="57.033" height="58" viewBox="0 0 57.033 58">
  <defs>
    <style>
      .cls-1 {
        fill: #00baf3;
      }
    </style>
  </defs>
  <g id="组_2709" data-name="组 2709" transform="translate(-163.757 -783.818)">
    <path id="路径_1701" data-name="路径 1701" class="cls-1" d="M192.164,841.818a12.747,12.747,0,0,1-12.2-8.828,12.958,12.958,0,0,1-3.476.473,12.559,12.559,0,0,1-12.733-12.346,12.117,12.117,0,0,1,3.492-8.49,12.118,12.118,0,0,1-3.492-8.491,12.559,12.559,0,0,1,12.733-12.346,10.545,10.545,0,0,1,3.625.69,11.579,11.579,0,0,1,2.465-4.362,13.042,13.042,0,0,1,9.584-4.3,12.77,12.77,0,0,1,12.35,9.339,13.03,13.03,0,0,1,3.543-.488,12.558,12.558,0,0,1,12.733,12.346,12.188,12.188,0,0,1-3.262,8.251,12.19,12.19,0,0,1,3.262,8.25,12.559,12.559,0,0,1-12.733,12.347,12.981,12.981,0,0,1-3.791-.562A12.608,12.608,0,0,1,192.164,841.818ZM180.644,830.79a.964.964,0,0,1,.944.765,10.758,10.758,0,0,0,10.576,8.33,10.642,10.642,0,0,0,10.512-8.056.965.965,0,0,1,1.3-.676,11.056,11.056,0,0,0,4.085.777,10.624,10.624,0,0,0,10.8-10.414,10.275,10.275,0,0,0-3.35-7.537.968.968,0,0,1,0-1.426,10.277,10.277,0,0,0,3.35-7.538,10.624,10.624,0,0,0-10.8-10.413,11.07,11.07,0,0,0-3.925.714.966.966,0,0,1-1.3-.751,10.76,10.76,0,0,0-10.673-8.814,11.077,11.077,0,0,0-8.141,3.654,9.478,9.478,0,0,0-2.289,4.59.966.966,0,0,1-1.378.693,9.069,9.069,0,0,0-3.866-.966,10.624,10.624,0,0,0-10.8,10.413,10.208,10.208,0,0,0,3.6,7.757.967.967,0,0,1,0,1.469,10.073,10.073,0,0,0-3.6,7.756,10.624,10.624,0,0,0,10.8,10.413,11.055,11.055,0,0,0,3.82-.68A.964.964,0,0,1,180.644,830.79Z"/>
    <g id="组_2679" data-name="组 2679" transform="translate(177.732 799.522)">
      <path id="路径_1702" data-name="路径 1702" class="cls-1" d="M205.86,824.268H196.6a2.523,2.523,0,0,1,.213,1.058,2.37,2.37,0,0,1-.213,1.06h9.263a1.108,1.108,0,0,0,.2,0,1.064,1.064,0,0,0-.2-2.118Z" transform="translate(-178.827 -800.871)"/>
      <path id="路径_1703" data-name="路径 1703" class="cls-1" d="M193.165,822.624h0a2.688,2.688,0,0,0-2.647,2.648,2.647,2.647,0,1,0,2.647-2.648Z" transform="translate(-178.624 -800.816)"/>
      <path id="路径_1704" data-name="路径 1704" class="cls-1" d="M180.179,824.268h0a1.121,1.121,0,0,0-1.164,1.06l0,.048a1.089,1.089,0,0,0,1.162,1.011H189.6a2.9,2.9,0,0,1,0-2.119Z" transform="translate(-178.241 -800.871)"/>
      <rect id="矩形_435" data-name="矩形 435" class="cls-1" width="2.118" height="2.118" transform="translate(23.013 3.367)"/>
      <path id="路径_1705" data-name="路径 1705" class="cls-1" d="M199.245,805.666a1.06,1.06,0,0,0,1.059-1.06,1.1,1.1,0,0,0-1.059-1.059,1.059,1.059,0,1,0,0,2.118Z" transform="translate(-178.88 -800.18)"/>
      <path id="路径_1706" data-name="路径 1706" class="cls-1" d="M195.411,805.666a1.059,1.059,0,1,0-1.059-1.06A1.059,1.059,0,0,0,195.411,805.666Z" transform="translate(-178.752 -800.18)"/>
      <path id="路径_1707" data-name="路径 1707" class="cls-1" d="M180.577,808.974h24.357a.845.845,0,0,0,.1-.006,2.378,2.378,0,0,0,2.263-2.412v-4.088a2.378,2.378,0,0,0-2.362-2.4H180.552a2.4,2.4,0,0,0-2.338,2.415v4.093A2.386,2.386,0,0,0,180.577,808.974Zm-.816-6.5a.859.859,0,0,1,.816-.867h24.348a.832.832,0,0,1,.831.76.832.832,0,0,0-.008.109v4.094a.832.832,0,0,1-.815.852l-.067,0H180.585a.841.841,0,0,1-.825-.868Z" transform="translate(-178.214 -800.064)"/>
      <rect id="矩形_436" data-name="矩形 436" class="cls-1" width="2.118" height="2.118" transform="translate(23.013 13.868)"/>
      <path id="路径_1708" data-name="路径 1708" class="cls-1" d="M199.245,814.408v0a1.059,1.059,0,1,0,1.059,1.06A1.06,1.06,0,0,0,199.245,814.41Z" transform="translate(-178.88 -800.542)"/>
      <path id="路径_1709" data-name="路径 1709" class="cls-1" d="M195.473,814.408h-.062v0a1.059,1.059,0,1,0,1.059,1.06A1.029,1.029,0,0,0,195.473,814.408Z" transform="translate(-178.752 -800.542)"/>
      <path id="路径_1710" data-name="路径 1710" class="cls-1" d="M204.934,810.924H180.552a2.4,2.4,0,0,0-2.338,2.415v4.093a2.385,2.385,0,0,0,2.363,2.4H191.7v1.87h2.118v-1.87h11.12a.7.7,0,0,0,.151-.015,2.459,2.459,0,0,0,2.21-2.405v-4.086A2.384,2.384,0,0,0,204.934,810.924Zm.815,2.415V817.4a.905.905,0,0,1-.855.885l-.054,0H180.585a.84.84,0,0,1-.825-.868v-4.084a.857.857,0,0,1,.816-.866h24.348a.831.831,0,0,1,.831.759A.832.832,0,0,0,205.749,813.339Z" transform="translate(-178.214 -800.426)"/>
    </g>
  </g>
</svg>
