<svg xmlns="http://www.w3.org/2000/svg" width="57.034" height="38.274" viewBox="0 0 57.034 38.274">
  <defs>
    <style>
      .cls-1 {
        fill: #00baf3;
      }
    </style>
  </defs>
  <path id="路径_2591" data-name="路径 2591" class="cls-1" d="M174.46,2747.418a57.972,57.972,0,0,0-1.914-6.882l-.444-1.3-.411-1.209-.082-.242-1.254,2.626a10.748,10.748,0,0,1-2.224,3.011,19.13,19.13,0,0,0-32.186,7.97,10.9,10.9,0,1,0,6.62,20.368,19.114,19.114,0,0,0,22.939.454,13.184,13.184,0,1,0,8.957-24.793Zm-2.875,15.177c-3.672,4.9-10.873,4.3-16.626,4.146-1.086-.028-5.084.48-5.291,1.982a2.137,2.137,0,0,0,.872,2.007,3.49,3.49,0,0,1-1.678-1.681,1.867,1.867,0,0,1,.752-2.283,6.1,6.1,0,0,1,2.524-.905c.911-.174,4.082-.961,4.993-1.286a18.709,18.709,0,0,0,2.306-.99,21.719,21.719,0,0,0,11.009-17.138c-2.559,8.45-7.848,13.719-12.9,15.589a90.6,90.6,0,0,1-9.741,2.494l-.258-.129c-4.257-2.064-4.365-11.289,3.355-14.277,3.4-1.312,6.644-.581,10.3-1.462,3.914-.925,8.45-3.871,10.278-7.7C173.564,2747.092,176.037,2756.682,171.586,2762.595Z" transform="translate(-126.417 -2737.538)"/>
</svg>
